<svg version="1.0" xmlns="http://www.w3.org/2000/svg" width="64" height="64" viewBox="0 0 48 48">
  <path d="M7.2 7.2c-1.7 1.7-1.7 31.9 0 33.6 1.7 1.7 24.9 1.7 26.6 0 .7-.7 1.2-2.2 1.2-3.5 0-2.7-3-3.2-5-.8-1.6 1.9-17 2.1-18.8.3-1.7-1.7-1.7-23.9 0-25.6 1.8-1.8 17.2-1.6 18.8.3 2 2.4 5 1.9 5-.8 0-1.3-.5-2.8-1.2-3.5-1.7-1.7-24.9-1.7-26.6 0z"/>
  <path d="M31.7 16.7c-.4.3 0 1.7.8 3L34 22h-9.5c-8.8 0-9.5.1-9.5 2s.7 2 9.7 2c7.5 0 9.4.3 8.5 1.2-1.8 1.8-1.5 4.8.6 4.8 2.2 0 8.2-6 8.2-8.1 0-.8-1.5-2.9-3.3-4.7-3.2-3.1-5.6-4-7-2.5z"/>
</svg>
