<?xml version="1.0" encoding="UTF-8" standalone="no"?>
<!-- Generator: Adobe Illustrator 19.0.0, SVG Export Plug-In . SVG Version: 6.00 Build 0)  -->

<svg
   version="1.1"
   id="Capa_1"
   x="0px"
   y="0px"
   viewBox="0 0 692.82477 692.82477"
   xml:space="preserve"
   sodipodi:docname="remove.svg"
   width="692.82477"
   height="692.82477"
   inkscape:version="1.2.1 (9c6d41e410, 2022-07-14)"
   xmlns:inkscape="http://www.inkscape.org/namespaces/inkscape"
   xmlns:sodipodi="http://sodipodi.sourceforge.net/DTD/sodipodi-0.dtd"
   xmlns="http://www.w3.org/2000/svg"
   xmlns:svg="http://www.w3.org/2000/svg"><defs
   id="defs150" /><sodipodi:namedview
   id="namedview148"
   pagecolor="#ffffff"
   bordercolor="#999999"
   borderopacity="1"
   inkscape:showpageshadow="0"
   inkscape:pageopacity="0"
   inkscape:pagecheckerboard="0"
   inkscape:deskcolor="#d1d1d1"
   showgrid="false"
   inkscape:zoom="0.84081633"
   inkscape:cx="-107.6335"
   inkscape:cy="245.59466"
   inkscape:window-width="1920"
   inkscape:window-height="1003"
   inkscape:window-x="0"
   inkscape:window-y="40"
   inkscape:window-maximized="1"
   inkscape:current-layer="Capa_1" />
<circle
   style="fill:#808080;stroke-width:1.19073"
   id="path362"
   cx="346.41238"
   cy="346.41238"
   r="346.41238" /><polygon
   points="212.669,245.004 0.708,457.678 33.149,490 245,277.443 456.851,490 489.292,457.678 277.331,245.004 489.292,32.337 456.851,0 245,212.564 33.149,0 0.708,32.337 "
   id="polygon115"
   transform="matrix(0.62617533,0,0,0.62617533,192.99943,192.99943)"
   style="fill:#ffffff" />
<g
   id="g117"
   transform="translate(-2.6498718,-2.6498718)">
</g>
<g
   id="g119"
   transform="translate(-2.6498718,-2.6498718)">
</g>
<g
   id="g121"
   transform="translate(-2.6498718,-2.6498718)">
</g>
<g
   id="g123"
   transform="translate(-2.6498718,-2.6498718)">
</g>
<g
   id="g125"
   transform="translate(-2.6498718,-2.6498718)">
</g>
<g
   id="g127"
   transform="translate(-2.6498718,-2.6498718)">
</g>
<g
   id="g129"
   transform="translate(-2.6498718,-2.6498718)">
</g>
<g
   id="g131"
   transform="translate(-2.6498718,-2.6498718)">
</g>
<g
   id="g133"
   transform="translate(-2.6498718,-2.6498718)">
</g>
<g
   id="g135"
   transform="translate(-2.6498718,-2.6498718)">
</g>
<g
   id="g137"
   transform="translate(-2.6498718,-2.6498718)">
</g>
<g
   id="g139"
   transform="translate(-2.6498718,-2.6498718)">
</g>
<g
   id="g141"
   transform="translate(-2.6498718,-2.6498718)">
</g>
<g
   id="g143"
   transform="translate(-2.6498718,-2.6498718)">
</g>
<g
   id="g145"
   transform="translate(-2.6498718,-2.6498718)">
</g>
</svg>
